Coordinates
version=1
nRows=38
nColumns=38
inDegrees=no

Units are S.I. units (second, meters, Newtons, ...)
If the header above contains a line with 'inDegrees', this indicates whether rotational values are in degrees (yes) or radians (no).

endheader
time	pelvis_tilt	pelvis_list	pelvis_rotation	pelvis_tx	pelvis_ty	pelvis_tz	hip_flexion_r	hip_adduction_r	hip_rotation_r	knee_angle_r	ankle_angle_r	subtalar_angle_r	mtp_angle_r	hip_flexion_l	hip_adduction_l	hip_rotation_l	knee_angle_l	ankle_angle_l	subtalar_angle_l	mtp_angle_l	lumbar_extension	lumbar_bending	lumbar_rotation	arm_flex_r	arm_add_r	arm_rot_r	elbow_flex_r	pro_sup_r	wrist_flex_r	wrist_dev_r	arm_flex_l	arm_add_l	arm_rot_l	elbow_flex_l	pro_sup_l	wrist_flex_l	wrist_dev_l
1.03	-2.7384	1.23937	1.29069	0.627943	0.341282	1.02862	0.444405	0.132054	-0.0719061	0.219674	-0.174449	0	0	0.511289	-0.163793	-0.0372806	1.22655	-0.218453	0	0	0.298704	0.155514	-0.0880242	-0.100697	-0.305866	0.582895	0.225179	1.07346	0	0	-0.225985	-0.0896044	-0.796206	0.322274	1.33406	0	0
1.04	-2.7492	1.24919	1.29883	0.62673	0.330072	1.03126	0.419845	0.12955	-0.0709952	0.212666	-0.174527	0	0	0.530504	-0.156543	-0.0530334	1.24497	-0.197438	0	0	0.286784	0.148903	-0.0801287	-0.0916691	-0.309038	0.583989	0.228511	1.07906	0	0	-0.227608	-0.0895036	-0.79632	0.328136	1.33696	0	0
1.05	-2.76508	1.25747	1.31259	0.625564	0.318951	1.03392	0.397213	0.125602	-0.0699504	0.205124	-0.175921	0	0	0.542559	-0.149988	-0.0600653	1.24399	-0.180524	0	0	0.277813	0.140673	-0.0727331	-0.0832207	-0.311663	0.583483	0.23172	1.08336	0	0	-0.229161	-0.090192	-0.795924	0.332106	1.3397	0	0
1.06	-2.7804	1.26548	1.32643	0.624526	0.30797	1.03656	0.374523	0.12171	-0.0693558	0.196454	-0.178817	0	0	0.553923	-0.143932	-0.0661667	1.23735	-0.165429	0	0	0.268889	0.132711	-0.065864	-0.0748799	-0.314592	0.580722	0.236088	1.08752	0	0	-0.230087	-0.0909799	-0.793906	0.335209	1.34307	0	0
1.07	-2.79705	1.2718	1.34188	0.623626	0.297171	1.03898	0.353982	0.117513	-0.0716055	0.187571	-0.182255	0	0	0.566426	-0.137577	-0.0701308	1.22598	-0.149332	0	0	0.261782	0.124906	-0.0591381	-0.0673954	-0.318009	0.574899	0.242311	1.09136	0	0	-0.230568	-0.0916085	-0.7908	0.33765	1.34626	0	0
1.08	-2.81745	1.27626	1.36149	0.622807	0.28646	1.04128	0.335674	0.112407	-0.0742351	0.178769	-0.186919	0	0	0.573281	-0.132733	-0.0669274	1.19704	-0.132998	0	0	0.257406	0.116298	-0.0518768	-0.0617951	-0.321534	0.566252	0.249999	1.09613	0	0	-0.230289	-0.0924503	-0.787574	0.339116	1.34869	0	0
1.09	-2.83421	1.28041	1.37682	0.622089	0.275759	1.04333	0.317223	0.108587	-0.0758981	0.169964	-0.191925	0	0	0.586012	-0.127468	-0.0709018	1.17607	-0.11898	0	0	0.252421	0.109156	-0.0444329	-0.0571851	-0.326413	0.554282	0.26106	1.10177	0	0	-0.230448	-0.0917775	-0.785195	0.34337	1.35005	0	0
1.1	-2.84707	1.28371	1.386	0.621259	0.264745	1.04504	0.298963	0.106992	-0.0758483	0.161157	-0.197142	0	0	0.605999	-0.128876	-0.0935861	1.16805	-0.107351	0	0	0.248183	0.104078	-0.0359453	-0.0548357	-0.332542	0.535983	0.276573	1.11101	0	0	-0.232746	-0.0897598	-0.782186	0.350585	1.3511	0	0
1.11	-2.86768	1.28297	1.40579	0.62087	0.254535	1.0464	0.286298	0.102296	-0.0736321	0.15281	-0.201097	0	0	0.619005	-0.112914	-0.0754041	1.13471	-0.0960317	0	0	0.247973	0.0970881	-0.0302876	-0.0518867	-0.338546	0.517554	0.292353	1.11802	0	0	-0.233297	-0.0885359	-0.777189	0.355217	1.35411	0	0
1.12	-2.88908	1.28723	1.42085	0.619952	0.243356	1.04808	0.26676	0.0986737	-0.0688227	0.142517	-0.206562	0	0	0.613296	-0.117701	-0.103833	1.07524	-0.0824605	0	0	0.243732	0.0902948	-0.0186462	-0.0522909	-0.344123	0.491773	0.311027	1.12894	0	0	-0.233869	-0.087679	-0.771946	0.359301	1.35722	0	0
1.13	-2.91125	1.28521	1.43902	0.619246	0.232656	1.049	0.254984	0.0948543	-0.0637553	0.134056	-0.211489	0	0	0.624425	-0.111406	-0.105852	1.03276	-0.0736628	0	0	0.246147	0.0836088	-0.0106426	-0.0538056	-0.349683	0.464934	0.331771	1.14248	0	0	-0.235181	-0.0860762	-0.766873	0.364492	1.35962	0	0
1.14	-2.93381	1.27995	1.45724	0.618547	0.221998	1.04949	0.246911	0.0911894	-0.0574878	0.126495	-0.215746	0	0	0.638519	-0.10371	-0.104419	0.987862	-0.0707288	0	0	0.252707	0.0773195	-0.00280979	-0.0571116	-0.354926	0.436285	0.353753	1.15701	0	0	-0.236741	-0.0842915	-0.762381	0.369094	1.36153	0	0
1.15	-2.95503	1.274	1.47322	0.617796	0.211387	1.04977	0.239846	0.0878613	-0.05007	0.119902	-0.219114	0	0	0.651193	-0.0968495	-0.104072	0.93801	-0.0726163	0	0	0.259823	0.0717028	0.00540794	-0.0609781	-0.359707	0.406612	0.37648	1.17163	0	0	-0.237635	-0.0825187	-0.757602	0.372777	1.36347	0	0
1.16	-2.97336	1.26691	1.48676	0.617075	0.200685	1.04978	0.233874	0.0851382	-0.0442557	0.113659	-0.222657	0	0	0.662805	-0.0905805	-0.103672	0.883326	-0.0771473	0	0	0.268608	0.066831	0.012636	-0.0657225	-0.363937	0.377079	0.399415	1.18642	0	0	-0.238678	-0.0808726	-0.752477	0.375895	1.36496	0	0
1.17	-2.98882	1.25972	1.49762	0.61639	0.189934	1.04956	0.22796	0.0829688	-0.0396622	0.107701	-0.225254	0	0	0.672491	-0.0848303	-0.104314	0.824148	-0.0822401	0	0	0.277413	0.0627881	0.0191645	-0.0706283	-0.367648	0.348115	0.422469	1.20061	0	0	-0.239306	-0.0792023	-0.748549	0.378501	1.3658	0	0
1.18	-3.00184	1.25325	1.50583	0.615707	0.179139	1.04921	0.221276	0.0811571	-0.0352443	0.101814	-0.22662	0	0	0.679395	-0.0799126	-0.108028	0.760468	-0.0903475	0	0	0.285041	0.0595074	0.0252542	-0.075336	-0.371122	0.321178	0.445823	1.21485	0	0	-0.239111	-0.0774193	-0.746549	0.380529	1.36643	0	0
1.19	-3.01271	1.24808	1.51136	0.615032	0.168273	1.04875	0.213574	0.0796951	-0.031072	0.096898	-0.227053	0	0	0.683331	-0.0761966	-0.116825	0.692799	-0.103046	0	0	0.290804	0.056937	0.030637	-0.0787346	-0.374109	0.296791	0.468249	1.22809	0	0	-0.238665	-0.0751783	-0.745947	0.382944	1.36692	0	0
1.2	-3.02253	1.24374	1.51527	0.614376	0.157333	1.04813	0.205461	0.0782814	-0.027236	0.0934302	-0.226714	0	0	0.685017	-0.073075	-0.131503	0.622406	-0.118866	0	0	0.29536	0.0548973	0.035762	-0.0810337	-0.376808	0.275411	0.489472	1.24013	0	0	-0.237907	-0.0729463	-0.745477	0.385044	1.36772	0	0
1.21	-3.031	1.24021	1.51712	0.613739	0.14633	1.04733	0.197071	0.0770481	-0.0236427	0.0915416	-0.224917	0	0	0.684138	-0.0700177	-0.149506	0.54826	-0.138542	0	0	0.298677	0.0535001	0.0408009	-0.0827581	-0.379893	0.257541	0.510633	1.2524	0	0	-0.237091	-0.0708424	-0.744223	0.38718	1.36895	0	0
1.22	-3.03785	1.23667	1.5171	0.613174	0.135294	1.04625	0.189609	0.0760443	-0.0214004	0.0919744	-0.222024	0	0	0.681616	-0.0663054	-0.166319	0.470542	-0.161826	0	0	0.301714	0.0528901	0.0452587	-0.0840515	-0.383159	0.242267	0.531673	1.26405	0	0	-0.236375	-0.0688857	-0.742056	0.389236	1.37071	0	0
1.23	-3.04202	1.23226	1.51436	0.612668	0.124232	1.04481	0.185464	0.0753501	-0.0223393	0.098871	-0.216577	0	0	0.678959	-0.0620368	-0.176897	0.391388	-0.186968	0	0	0.305528	0.0534461	0.0487084	-0.0850088	-0.386588	0.2293	0.552455	1.27508	0	0	-0.236449	-0.0665829	-0.740369	0.392458	1.3724	0	0
1.24	-3.05648	1.23258	1.52495	0.61275	0.112898	1.04288	0.239743	0.0533613	-0.159252	0.274633	-0.149005	0	0	0.670342	-0.0509527	-0.181641	0.31114	-0.214725	0	0	0.302731	0.0487154	0.0472711	-0.0853357	-0.389094	0.214064	0.576968	1.29144	0	0	-0.239936	-0.0627132	-0.740326	0.404647	1.37115	0	0
1.25	-3.05489	1.22758	1.51642	0.612431	0.101657	1.04078	0.235901	0.0558293	-0.160414	0.280382	-0.141159	0	0	0.667052	-0.0472428	-0.179363	0.233165	-0.232829	0	0	0.307237	0.0515073	0.0491189	-0.0852304	-0.393157	0.20756	0.596005	1.29869	0	0	-0.24143	-0.0596574	-0.739707	0.409702	1.37109	0	0
1.26	-3.05115	1.22099	1.50573	0.612031	0.0902972	1.03831	0.232826	0.0595047	-0.159501	0.28427	-0.13567	0	0	0.664487	-0.0445326	-0.173576	0.156365	-0.250368	0	0	0.31404	0.0551747	0.0509357	-0.0859373	-0.397073	0.202395	0.614252	1.30557	0	0	-0.243393	-0.0572409	-0.738235	0.414096	1.37191	0	0
1.27	-3.04588	1.21298	1.49377	0.611578	0.0787644	1.03554	0.230387	0.0640059	-0.156704	0.286952	-0.131686	0	0	0.664429	-0.0435337	-0.165169	0.0861812	-0.26392	0	0	0.32297	0.0594082	0.0523166	-0.0868425	-0.400517	0.198885	0.630642	1.31274	0	0	-0.246057	-0.0553799	-0.735842	0.418204	1.37281	0	0
1.28	-3.03988	1.20447	1.4809	0.611097	0.0670705	1.03253	0.227873	0.0688948	-0.151996	0.289156	-0.129125	0	0	0.666142	-0.0440425	-0.157139	0.0239199	-0.274048	0	0	0.332634	0.0641894	0.0537254	-0.0880998	-0.403636	0.195928	0.646062	1.31949	0	0	-0.249321	-0.0539302	-0.732015	0.422495	1.37434	0	0
1.29	-3.03305	1.19972	1.46733	0.610672	0.0551448	1.0296	0.220686	0.0735028	-0.148738	0.290565	-0.127487	0	0	0.669073	-0.045693	-0.164134	0	-0.274953	0	0	0.337326	0.0687803	0.0541215	-0.0861441	-0.406168	0.196226	0.657887	1.32216	0	0	-0.251733	-0.0525533	-0.728914	0.426439	1.37677	0	0
1.3	-3.02639	1.19098	1.45325	0.610252	0.0431006	1.02621	0.217469	0.0785922	-0.139011	0.292442	-0.120538	0	0	0.678665	-0.0484857	-0.177028	0	-0.271416	0	0	0.34842	0.0748741	0.0572993	-0.0910247	-0.409263	0.191463	0.673918	1.32923	0	0	-0.255666	-0.0519921	-0.720255	0.430482	1.38017	0	0
1.31	-3.02194	1.18453	1.44317	0.609996	0.0309171	1.02302	0.212209	0.081875	-0.132039	0.294956	-0.115194	0	0	0.686121	-0.0492848	-0.188375	0	-0.262868	0	0	0.35644	0.0788648	0.0580532	-0.0918943	-0.410349	0.189464	0.683542	1.3345	0	0	-0.258162	-0.0519822	-0.712632	0.432576	1.38127	0	0
1.32	-3.02706	1.17523	1.44532	0.609806	0.0188788	1.02007	0.211473	0.0809247	-0.125298	0.298924	-0.111277	0	0	0.691364	-0.0441396	-0.186806	0	-0.258514	0	0	0.368892	0.0777537	0.0577521	-0.0905087	-0.408128	0.189757	0.684742	1.33774	0	0	-0.258301	-0.0542055	-0.70668	0.42943	1.38289	0	0
1.33	-3.02512	1.17271	1.43945	0.609837	0.00653712	1.01724	0.204066	0.081532	-0.120493	0.305095	-0.106528	0	0	0.698035	-0.0434768	-0.19811	0	-0.247996	0	0	0.3715	0.0796582	0.0578132	-0.0890694	-0.408085	0.189692	0.689622	1.3394	0	0	-0.258202	-0.0541455	-0.700778	0.430063	1.38219	0	0
1.34	-3.02486	1.17149	1.43723	0.609988	-0.00587059	1.01471	0.19634	0.0807243	-0.11752	0.312869	-0.10325	0	0	0.703168	-0.0401151	-0.200158	0	-0.242987	0	0	0.372207	0.0796186	0.0569418	-0.0867246	-0.406762	0.190139	0.691345	1.33923	0	0	-0.255941	-0.0546142	-0.696992	0.428484	1.38153	0	0
1.35	-3.02528	1.17089	1.43712	0.610159	-0.0184659	1.01244	0.188143	0.0794427	-0.114614	0.32046	-0.101936	0	0	0.708689	-0.0363216	-0.197167	0	-0.243356	0	0	0.372295	0.0782056	0.055717	-0.0844754	-0.404059	0.190463	0.69019	1.33827	0	0	-0.253052	-0.0553699	-0.694769	0.426502	1.38142	0	0
1.36	-3.0265	1.17119	1.43866	0.610314	-0.0313246	1.01045	0.179694	0.0774958	-0.11163	0.330062	-0.10098	0	0	0.714005	-0.0326225	-0.191227	0	-0.247211	0	0	0.371435	0.0756186	0.0546187	-0.0825256	-0.400089	0.190793	0.686268	1.33693	0	0	-0.24987	-0.0567826	-0.692604	0.423989	1.38066	0	0
1.37	-3.02876	1.1718	1.44155	0.610448	-0.0445168	1.00866	0.171331	0.0748701	-0.108629	0.34093	-0.101389	0	0	0.719034	-0.0290651	-0.184618	0	-0.253551	0	0	0.370611	0.0721157	0.054148	-0.081348	-0.395013	0.190941	0.679852	1.33515	0	0	-0.247166	-0.0584372	-0.691346	0.421813	1.37897	0	0
1.38	-3.03221	1.17229	1.44502	0.610522	-0.0580357	1.007	0.163871	0.0714935	-0.105988	0.353596	-0.103932	0	0	0.723249	-0.0258275	-0.179563	0	-0.259459	0	0	0.370293	0.0681045	0.05515	-0.0815395	-0.389351	0.191028	0.671969	1.33339	0	0	-0.245409	-0.0600793	-0.690786	0.420666	1.3766	0	0
1.39	-3.03814	1.17409	1.44904	0.610397	-0.0720311	1.00554	0.156656	0.0665111	-0.105068	0.370456	-0.111156	0	0	0.725805	-0.0236589	-0.178179	0.0277143	-0.262161	0	0	0.369411	0.063075	0.0593197	-0.0820128	-0.382455	0.191946	0.66016	1.33142	0	0	-0.245127	-0.0621784	-0.688802	0.421193	1.37223	0	0
1.4	-3.06497	1.16148	1.47793	0.610615	-0.0858109	1.00394	0.168212	0.0527236	-0.106752	0.391481	-0.121745	0	0	0.758856	-0.00411545	-0.187503	0.0727285	-0.262176	0	0	0.389661	0.0488476	0.0635499	-0.085074	-0.370931	0.193848	0.637729	1.331	0	0	-0.245024	-0.069111	-0.683583	0.412212	1.36887	0	0
